<svg id="圖層_1" data-name="圖層 1" xmlns="http://www.w3.org/2000/svg" viewBox="0 0 194.17 69.59"><defs><style>.cls-1{fill:#d80c18;}.cls-2{fill:#fff;}</style></defs><rect class="cls-1" width="194.17" height="69.59"/><path class="cls-2" d="M18,17.89a5.42,5.42,0,0,0,5.36,1.93c5.31-1.31,10.43-3.19,15.89-4.25C42,14,45.1,13.1,48,11.7a3.25,3.25,0,0,0,1.15-3.47c-.43-1.31-1.83-1.65-2.8-2.32-2.07-.29-4.25-.53-5.89.82-1.16,1.45-3.09,1.88-4.54,3-.63.48-1.54.39-2.08,1.16-3.38.43-6.37.72-9,2.9-2.61-.1-4.49.53-6.95.77C16.51,15.71,18.3,16.63,18,17.89Z"/><path class="cls-2" d="M99.06,56.13c-.2-1.73-.78-3.38-1.07-4.88a87.67,87.67,0,0,1-1-13.32c.09-3-.68-6.67-1.06-9.27-.87-1.94.33-3.87-.58-5.8-.44-1-.15-2.32-.25-3.48.39-1.11,1.55-1.11,2.23-1.88,2.51-.73,5.46-1.64,7.87-.1,2,1.64,5.31.92,7.29-.24.58-1.21,1.55-2.41,1.4-3.81-1-2.13-3.71-2.13-5.79-2.66h-1.26c-3-1.64-6,.43-8.69,1.26-1.84.82-4.25.19-5.8,1.73-2.08-.14-3.57,1.16-5.55,1.16-1,1-2.47.49-3.48,1.31a19.6,19.6,0,0,0-3.62.58c-.53,1.06-2,.62-2.66,1.35-1.79.63-3.72,1.06-5.55,1.54-3.24,1.12-6.86.63-10.19,1.26A5.09,5.09,0,0,0,58.58,22c-.39,1.83,1.74,1.83,2.46,3.14C62.2,27,64.38,27,66,28.08c.68.58,1.79.09,2.32,1a11.43,11.43,0,0,0,6.86.39c1.73-1.16,3.81-1.84,5.21-3.63,1.84-.43,3-2.36,4.49-3.13,1.16-.2,2.22-1.5,3.38-.68.63.29.25.77.34,1.4a4.18,4.18,0,0,1,.1,3.24v.91c.58,11.06-.39,21.59-1.35,32.7-.63,1.93.58,3.52.58,5.21.87.73,1.2,2.13,2.51,2.57,1.88.62,4.78.91,6.28-.73,2.94-1.3,2-5,3-7.54C99.15,58.6,100,57.2,99.06,56.13Z"/><path class="cls-2" d="M73.21,59.81c-.38-.63-1.3-1-2-1.5-2.7-.48-5-2-7.29-3.58-1.3.44-1.78-1.16-2.9-1.3-.53-.63-1.54-.82-2.07-1.35-2.47-.63-4-2.85-5.94-4-3.58-1.64-6-5.84-8.7-8.6-1.74-1.59-4-3.81-3.91-6.57.77-1.73,2.85-2.31,4.4-3.13,1.93-1.45,4.68-2.28,5.79-4.55a2.86,2.86,0,0,0-.14-2.65c-.63-1.31-2.22-1.26-3.48-1.74-3.09-.29-5.31,2-7.05,3.81-1.06.1-2.22,1.36-3.24.25a12.82,12.82,0,0,0-2-3.58c-.48-.38-1.25-.09-1.64-.72-1.06.48-2.22.05-3.24.34a3.6,3.6,0,0,0-2,2c.29,2-1,3.67-.19,5.55.29,2.32-2,3.77-3.62,4.78-2.76.39-4.35,2.8-7,3.33-1.07.54-2.32.63-3.38,1.07-1.16.24-3.19-.19-3.72,1.25a6,6,0,0,0,1.73,3.38c.63,1.41,2.47,1.89,3.72,2.8,1.89.63,3.77-.28,5.56-.14.67,2.51.48,5.12-1.26,7a9.26,9.26,0,0,1-2.8,4.2c0,.78-1.06.87-1.16,1.6-.38.19-.72.63-1.25.48-1.12-1.21-2.56-1.16-4-.92a2.12,2.12,0,0,0-1.25,1.5c-1.55.72,0,1.84-.48,3,0,.72,1.11,1,.72,1.88a4.66,4.66,0,0,0,3.91,2.9c2.9,1.59,5.32-.44,8-1,3.09-2.61,6.13-5.7,7.78-9.47,0-1,.77-1.25.82-2.22.72-.77.43-2,1.16-2.8.67-1.2.48-2.9,1-4a7.45,7.45,0,0,1,1.16-4.16c2.17.2,2.75,2.18,4.4,3.24.43,1.11,1.83,1.5,2.22,2.46,3.33,4.2,5.89,8.79,9.27,12.94l5.31,4.06c4.74,1,10.1-.29,14.88-.43,1.5-.87,3.62-.34,5-1.65.2-.62.82-1.25.58-2C74.47,60.92,74.09,60,73.21,59.81Z"/><path class="cls-2" d="M117.7,34.45c-3.19-.19-7-2.27-9.85,0-1.26,3.53.91,7,3.72,9.61.72.49,1.35.78,1.4,1.64a14.69,14.69,0,0,0,7.29.44c.1-1.3,1.84-.87,2-2.08,1.5-3.57-.92-6.52-3.14-8.93A2.71,2.71,0,0,1,117.7,34.45Z"/><path class="cls-2" d="M161,45.79l.27.3c.18.07.38.07.55.12l8.84-.08a.9.9,0,0,0,.59-.34.48.48,0,0,1,.31.1c1.94.06,3.78,0,5.74,0l.21.17v2.85c-.16.37.21,1.07-.31,1.26l-4.66,0a.62.62,0,0,0-.49.32c-.1.29.15.42.32.55l7.48,0,5-.06.25-.24c.15-.26-.1-.45-.25-.6l-5-.07-.15-.17c0-1.38,0-2.51.05-3.86l.1-.17c0-.06.16,0,.2-.07,2-.09,4,0,5.91-.1.23-.06.28-.31.25-.52S186,45.09,186,45c-2-.14-4,0-6-.1l-.11-.15V41.86c-.27-.62-1-.56-1.56-.49-1.1.23-.49,1.59-.65,2.36-.15.39.14,1-.25,1.22l-4.74,0c-.48.07-1,0-1.42.23-3.63,0-6.11,0-9.71.12C161.23,45.38,161.12,45.64,161,45.79Z"/><path class="cls-2" d="M136.73,44.36c-1.53.07-3.23,0-4.69.07-.23,0-.26.3-.27.48s.17.28.34.32l3.13,0,7.8-.06a.45.45,0,0,0,.42-.24c0-.21.06-.35-.12-.5-1.23-.24-2.53,0-3.82-.1l-.23-.17a19.22,19.22,0,0,0-.08-2.41c-.27-.52-.87-.42-1.36-.47-1.42.18-.61,1.86-.82,2.78A.39.39,0,0,1,136.73,44.36Z"/><path class="cls-2" d="M169.61,43.25l.72-.07a.45.45,0,0,0,.22-.6.41.41,0,0,0-.28-.2c-1.69-.07-3.52,0-5.15,0a13.25,13.25,0,0,0-2.82.1.46.46,0,0,0-.17.46c.1.13.19.27.35.31Z"/><path class="cls-2" d="M136.63,45.61a1.18,1.18,0,0,0-1.46.11A32.08,32.08,0,0,1,132,51.46l0,.35a.82.82,0,0,0,.62.37c1-.4,1.54-1.49,2.19-2.28a.72.72,0,0,1,.47-.43c.58.47,1,1.09,1.59,1.57a.74.74,0,0,0,.84-.25c0-.1.12-.23.06-.32-.22-.66-1.06-1.27-1.35-2-.78-.73.38-1.37.48-2.08A.74.74,0,0,0,136.63,45.61Z"/><path class="cls-2" d="M141,45.73a1.13,1.13,0,0,0-.73.47,15.21,15.21,0,0,1-1.83,4.45.52.52,0,0,0,.2.66c1.06.54,1.16-.85,1.81-1.21.52.49.94,1.29,1.49,1.71a1,1,0,0,0,.8-.18c.08-.15.2-.32.1-.49a12.53,12.53,0,0,1-1.39-2.85c.28-.65.9-1.21.84-1.94C142,45.83,141.47,45.77,141,45.73Z"/><path class="cls-2" d="M170.2,48.35l-7.55,0-.17,0a.51.51,0,0,0-.35.64,1.16,1.16,0,0,0,.38.27h7.3l.42,0a.57.57,0,0,0,.35-.48C170.58,48.52,170.35,48.44,170.2,48.35Z"/><path class="cls-2" d="M170.1,51.3c-2.52,0-4.9,0-7.38,0-.2.05-.44.05-.56.25a.44.44,0,0,0,.22.59l7.43,0a.57.57,0,0,0,.56-.17.41.41,0,0,0,.08-.41A.7.7,0,0,0,170.1,51.3Z"/><path class="cls-2" d="M131.87,54.59c1.33.13,2.63,0,4,.1.08,0,.07.13.07.2a16.81,16.81,0,0,1-3.45,4.22c-.23.17-.55.36-.65.62a.46.46,0,0,0,.13.45c.84.45,1.48-.43,2-.87.09-.13.37-.13.38-.34a23.16,23.16,0,0,0,2.09-2.12c0-.16.26-.15.24-.32.26-.14.28-.68.6-.42a23,23,0,0,0-.32,4.52l.07.45a.92.92,0,0,0,.7.52c.53,0,1.18,0,1.46-.52a27.42,27.42,0,0,0-.14-4.65l.11-.07a33.42,33.42,0,0,0,3.43,2.46h.6c.23-.15.46-.39.32-.7a14.58,14.58,0,0,1-3.48-3c0-.14-.29-.33,0-.42l3.45-.07a.52.52,0,0,0,.34-.52c0-.19-.24-.25-.39-.32h-3.65c-.13-.06-.32,0-.41-.13-.2-.76.28-1.39-.28-2a1.71,1.71,0,0,0-1.5-.2c-.85.35-.39,1.36-.52,2.09-.06.1-.17.24-.3.23l-4.64,0-.3.17C131.56,54.2,131.72,54.46,131.87,54.59Z"/><path class="cls-2" d="M176.63,52.17a1.52,1.52,0,0,0-1-.23c-.29.1-.65.22-.74.55,0,2.29-.07,4.89-.1,7.13l.07.38a1.84,1.84,0,0,0,1.64,1c2.14-.08,4.71.39,6.64-.42a2.72,2.72,0,0,0,1.19-2.43,1.42,1.42,0,0,0-1.3-.57,1.21,1.21,0,0,0-.89.6,2.4,2.4,0,0,1-1.54,2h-3.1c-.2-.08-.48-.13-.58-.37-.07-2,0-3.76,0-5.89C176.72,53.29,177.11,52.61,176.63,52.17Z"/><path class="cls-2" d="M180.46,57a1.65,1.65,0,0,0,1.25-.37.89.89,0,0,0,.17-.7,11.62,11.62,0,0,0-1.52-2.48,8.19,8.19,0,0,0-1.19-1.32c-.36,0-.84-.07-1,.28-.15.84.71,1.36.89,2.13C179.6,55.33,179.2,56.83,180.46,57Z"/><path class="cls-2" d="M185.08,57.88a1.68,1.68,0,0,0,1.49-.35,1,1,0,0,0,.18-.89c-.58-.83-1.25-1.61-1.92-2.41-.42-.36-.75-1-1.29-1.25a1.11,1.11,0,0,0-.82.1.63.63,0,0,0-.14.63,16.48,16.48,0,0,1,1.53,2.4C184.39,56.72,184.41,57.52,185.08,57.88Z"/><path class="cls-2" d="M162.2,60.25a1.91,1.91,0,0,0,1,.62,46.2,46.2,0,0,0,5.54.07l.83-.27a1.55,1.55,0,0,0,.79-1.3,3,3,0,0,0,1.22.18c1.16-.36.94-1.73,1.26-2.64a13.24,13.24,0,0,0,.35-3.13,1.1,1.1,0,0,0-.74-.39c-.26.09-.63.07-.73.42a11.4,11.4,0,0,1-1,3.75c-.1.16-.19.41-.35.32-.34-1.37.77-3.76-1.36-4h-4.23a3.76,3.76,0,0,0-1.89.25,1.67,1.67,0,0,0-.69,1l-.07,4.77ZM164.29,55c0-.17.25-.12.37-.17l3.35,0,.1.1,0,5-.17.13-3.58,0-.07-.07C164.26,58.35,164.23,56.55,164.29,55Z"/><path class="cls-2" d="M147.83,42a1,1,0,0,0-.76-.67c-.53-.07-1.13-.08-1.43.42a20.44,20.44,0,0,1-3.2,6.81.63.63,0,0,0,.1.57,1,1,0,0,0,.67.17c.74-.38,1.1-1.2,1.67-1.71l0,0v8.79a24.68,24.68,0,0,0,.17,3.33,1.85,1.85,0,0,0,1.57.84c3.49,0,6.95,0,10.47,0l.2-.13a.37.37,0,0,0-.07-.5,16.7,16.7,0,0,0-3.53-.1,1.82,1.82,0,0,1-1-.14l-.06-3.54.13-.17c1.26-.2,2.54,0,3.83-.15.19,0,.17-.26.22-.41s-.22-.21-.32-.31l-3.45,0c-.15,0-.39,0-.41-.25V51.14c.06-.1.16-.12.23-.17l3.45,0,.32-.15c0-.13.22-.23.1-.37s-.21-.22-.31-.32l-3.61,0-.18-.15c0-1.23-.07-2.5.06-3.67l.15-.12,4.17-.06c.2-.08.23-.3.35-.46l-.28-.31-5-.07-.1-.07a18.24,18.24,0,0,1,2-2.22,1,1,0,0,0,.38-1,1.61,1.61,0,0,0-1.29-.55c-1,0-1.16,1.14-1.62,1.77a7.08,7.08,0,0,0-1.12,2.05l-3.87,0-.06-.07a19.58,19.58,0,0,1,1.39-2.74Zm-.62,4.42c0-.38.44-.17.65-.25.89,0,1.83,0,2.65,0l.08.25c0,1.22,0,2.53-.05,3.5a16.07,16.07,0,0,1-3.26.08l-.07-.08Zm0,4.69c.07-.1.19-.1.29-.14a19.2,19.2,0,0,1,3,.1l0,3.89a29.54,29.54,0,0,1-3.26,0l-.07-.1Zm0,5a.27.27,0,0,1,.2-.17,19.81,19.81,0,0,1,3.13.1l.07.07c0,1.26.1,2.49,0,3.61l-.07.07h-3.19l-.11-.07C147.15,58.44,147.07,57.24,147.14,56.08Z"/><rect class="cls-2" y="26.88" width="24.48" height="1.04"/><rect class="cls-2" x="51.05" y="26.88" width="10.87" height="1.04"/><rect class="cls-2" x="81.47" y="26.88" width="7" height="1.04"/><rect class="cls-2" x="97.17" y="27.11" width="97" height="1.04"/><rect class="cls-2" y="46.2" width="16.03" height="1.04"/><rect class="cls-2" x="32.93" y="46.2" width="4.11" height="1.04"/><rect class="cls-2" x="52.5" y="46.2" width="34.05" height="1.04"/><rect class="cls-2" x="98.86" y="46.2" width="13.77" height="1.04"/><rect class="cls-2" x="121.81" y="46.2" width="7.97" height="1.04"/><rect class="cls-2" x="187.49" y="46.2" width="6.68" height="1.04"/><rect class="cls-2" y="53.92" width="16.27" height="1.04"/><rect class="cls-2" x="31" y="53.92" width="10.87" height="1.04"/><rect class="cls-2" x="65.29" y="53.92" width="20.77" height="1.04"/><rect class="cls-2" x="100.07" y="53.92" width="29.71" height="1.04"/><rect class="cls-2" x="187.49" y="53.92" width="6.68" height="1.04"/><rect class="cls-2" y="58.03" width="7.34" height="1.04"/><rect class="cls-2" x="29.07" y="58.03" width="15.7" height="1.04"/><rect class="cls-2" x="73.75" y="58.03" width="11.59" height="1.04"/><rect class="cls-2" x="101.28" y="58.03" width="28.74" height="1.04"/><rect class="cls-2" x="187.01" y="58.03" width="7.16" height="1.04"/><rect class="cls-2" y="65.03" width="7.58" height="1.04"/><rect class="cls-2" x="24" y="65.03" width="26.81" height="1.04"/><rect class="cls-2" x="75.2" y="65.03" width="10.63" height="1.04"/><rect class="cls-2" x="100.79" y="65.03" width="93.38" height="1.04"/></svg>