<?xml version="1.0" encoding="utf-8"?>
<!-- Generator: Adobe Illustrator 24.3.0, SVG Export Plug-In . SVG Version: 6.00 Build 0)  -->
<svg version="1.1" id="圖層_1" xmlns="http://www.w3.org/2000/svg" xmlns:xlink="http://www.w3.org/1999/xlink" x="0px" y="0px"
	 viewBox="0 0 142 76" style="enable-background:new 0 0 142 76;" xml:space="preserve">
<g>
	<g>
		<path d="M9.4,0.5c2.2,2.8,4.3,5.8,6.2,8.8l-2.3,2.4c-0.4-0.7-0.8-1.3-1.1-1.9V13h-8v-2.1c-0.6,0.8-1.2,1.5-1.7,2.2l-2.2-3
			c2.2-2.7,4.3-6,6.2-9.7h2.9V0.5z M14.6,16v3.1c-1.3,3-2.8,5.7-4.4,8.1c1.2,1.1,2.3,2.2,3.2,3.3l-2.6,2.6c-2-2.5-4.8-5.2-8.4-8.1
			l2.5-2.4c1,0.8,1.9,1.5,2.7,2.3c1-1.5,2-3.4,3.1-5.5h-9V16H14.6z M12.1,9.8c-1.5-2.4-2.7-4.3-3.7-5.6C7.4,6,6.1,7.9,4.9,9.8H12.1z
			 M21.4,26.6l1.8,1.6c-1.9,2.1-4.1,4-6.9,5.6l-2.3-3c2.4-1.3,4.4-2.7,6-4.2h-4V7.1h5.7c0.1-0.8,0.3-1.5,0.4-2.3H15V1.5h17.9v3.4
			h-7.1c-0.1,0.8-0.2,1.5-0.4,2.3h6.5v19.5h-3.3c2.1,1.5,3.8,3,5.3,4.4l-2.6,2.6c-1.4-1.7-3.3-3.4-5.8-5.4l1.7-1.6H21.4z M28.5,12.6
			v-2.2h-8.8v2.3L28.5,12.6L28.5,12.6z M28.5,17.8v-2.2h-8.8v2.2H28.5z M28.5,20.9h-8.8v2.4h8.8V20.9z"/>
		<path d="M41.1,14l-3.6-2.3C40.1,8.3,42,4.8,43.1,1l3.8,0.8c-0.4,1.3-0.8,2.5-1.2,3.6h5.8v-5h3.8v5h11.4V9H55.2v5.7h13.9v3.6h-9.4
			v9.1c0,1.4,0.5,2.1,1.5,2.1h3c0.3,0,0.6-0.2,1-0.6c0.3-0.4,0.5-2.2,0.6-5.4l3.6,1.2C69,28.9,68.5,31.3,68,32
			c-0.7,0.7-1.6,1.1-2.8,1.2h-5c-2.8,0-4.2-1.7-4.2-5v-9.8h-5.6c-0.4,4-1.3,7-2.6,9c-1.7,2.4-4.5,4.6-8.5,6.4l-2.7-3.4
			c3.5-1.4,6-3.1,7.6-5c1.2-1.5,1.9-3.9,2.3-7h-9.4v-3.6h14.4V9.1h-7.4C43.1,10.8,42.3,12.4,41.1,14z"/>
		<path d="M105.4,14.8v3.7H72.6v-3.7H105.4z"/>
		<path d="M127,0.2v4h10.6v3.6H127v3.8h14.1v3.6h-13.9v10.4h-3.6V15.2H109v-3.6h4.9V3.1h3.8v8.5h5.5V0.4h3.8V0.2z M119.8,18.5
			c-2.1,3.3-4.7,6.2-7.7,8.7l-2.4-3.1c3-2.3,5.5-4.9,7.5-8L119.8,18.5z M138.6,18.9c-4.6,10-13.4,15-26.3,15l-1.4-3.6
			c12.5,0,20.6-4.4,24.3-13.2L138.6,18.9z"/>
	</g>
	<g>
		<path d="M7.8,51.2L6,54c-1.8-1.3-3.7-2.4-5.7-3.1l1.9-2.8C4.1,49.1,6.1,50.1,7.8,51.2z M10.3,57.4c-1.9,2.4-4.2,4.7-7,6.8l-2.5-3
			c3-1.9,5.4-4,7.4-6.3L10.3,57.4z M15.1,65.6v-2.5h3.7v2.5h14.3v3.5H18.9v6.4h-3.7v-6.4H0.9v-3.5H15.1z M10.5,45.8l-1.8,2.8
			c-1.9-1.5-4-2.8-6-3.6l1.8-2.7C6.6,43.2,8.6,44.5,10.5,45.8z M9.9,55.5L8.8,52c2.8-3,4.7-6.2,5.8-9.6l3.5,0.7
			c-0.3,0.9-0.6,1.7-1,2.5h4.2c-0.4-1-0.7-1.9-1.1-2.7l3.7-0.6c0.4,1,0.7,2.1,1,3.3h7.3v3.1h-7.1v1.6h6.4v2.9h-6.4v1.7h6.4v2.9h-6.4
			v1.8h7.6v3.1H12.4v-9.7C11.6,53.8,10.8,54.6,9.9,55.5z M15.8,48.6v1.6h5.9v-1.6H15.8z M15.8,53.1v1.7h5.9v-1.7H15.8z M15.8,57.6
			v1.8h5.9v-1.8H15.8z"/>
		<path d="M46.8,43.8c-0.7,2.2-1.5,4.4-2.5,6.4v25.6h-3.7V56.4c-1,1.4-2.1,2.7-3.2,4l-1.2-3.7c3.2-4.1,5.6-9,7.1-14.5L46.8,43.8z
			 M67.6,72.6c0,1.8-1.1,2.7-3.2,2.7h-2.7l-0.9-3.1l2.6,0.1c0.6,0,0.9-0.3,0.9-0.9v-1.7h-4.2V75h-3.2v-5.3h-4.6
			c-0.6,2.5-1.6,4.5-3.1,5.9l-2.7-2.4c2.1-2,3.1-4.9,3.1-8.7v-2.3c-1,1.4-2,2.7-3,3.8l-2.2-2.7c2.2-2.2,4.1-5.2,5.8-9h-4.3V51h6
			v-2.7h-4.4v-3.2h4.4v-2.8h3.5v2.8h5.1v-2.8H64v2.8h4.2v3.2H64V51h5.4v3.3H53.7c-0.3,0.6-0.5,1.2-0.8,1.8h14.5v16.6H67.6z M57,66.9
			v-2.5h-4c0,0.9-0.1,1.7-0.1,2.5H57z M57,61.5v-2.6h-4v2.6H57z M60.6,48.4h-5.1V51h5.1V48.4z M60.1,61.5h4.2v-2.6h-4.2V61.5z
			 M60.1,66.9h4.2v-2.5h-4.2V66.9z"/>
		<path d="M91,42.5V47h12v3.7H91v5.2h13.9v3.7H94.1c2.4,4.1,6.3,7.8,11.7,11l-2.7,3.4c-5.7-4.3-9.7-9.1-12-14.4H91v16h-3.8v-16l0,0
			c-2.6,5.8-6.7,10.7-12.4,14.4l-2.2-3.6c5.2-2.9,9.1-6.5,11.6-10.9H73.4v-3.7h13.9v-5.2H75.6v-3.7h11.7v-4.5H91V42.5z"/>
		<path d="M123.1,49.5h-12.8v-3.6h12.8v-3.5h3.8v3.4h12.9v3.6h-12.9v9.4c3.6,4.9,8.6,8.7,14.8,11.6l-2.1,3.5
			c-4.9-2.4-9.1-5.7-12.7-9.7v11.3h-3.8V64.2c-3.3,3.9-7.5,7.2-12.6,9.8l-2-3.4c6.3-3,11.1-6.9,14.6-11.6V49.5z M112,62.6l-2.3-2.8
			c2.9-2.4,4.8-5.5,5.8-9.6l3.5,0.6c-0.4,1.7-1,3.3-1.6,4.8c1.6,0.8,3,1.7,4.4,2.8l-2,3.1c-1.3-1.2-2.7-2.2-4-3
			C114.6,60.1,113.4,61.5,112,62.6z M131,61.6l-2.3-3c2.3-2.1,3.9-4.9,4.8-8.4l3.5,0.6c-0.4,1.6-0.8,3.1-1.4,4.4
			c1.8,1,3.5,2.1,5,3.4l-2.1,3.2c-1.5-1.4-3.1-2.7-4.6-3.6C133,59.6,132.1,60.6,131,61.6z"/>
	</g>
</g>
</svg>
