<?xml version="1.0" encoding="utf-8"?>
<!-- Generator: Adobe Illustrator 24.3.0, SVG Export Plug-In . SVG Version: 6.00 Build 0)  -->
<svg version="1.1" id="圖層_1" xmlns="http://www.w3.org/2000/svg" xmlns:xlink="http://www.w3.org/1999/xlink" x="0px" y="0px"
	 viewBox="0 0 117 172" style="enable-background:new 0 0 117 172;" xml:space="preserve">
<style type="text/css">
	.st0{enable-background:new    ;}
</style>
<g>
	<g class="st0">
		<path d="M54.7,4.8v5.5H39v8.9h13v21.4H38.9v9.9h16.8V56H2.3v-5.5H19v-9.8H6V19.1h13.1v-8.9H3.2V4.8H54.7z M33.3,35.2h13V24.6h-13
			V10.3h-8.6v14.3h-13v10.6h13v15.3h8.6V35.2z"/>
		<path d="M74.6,27.4l-4,4c-2.2-3-5.3-6.2-9.4-9.7l3.9-3.7C68.8,21.1,72,24.2,74.6,27.4z M74.5,38.2c-2.1,7-4.4,13.6-7,19.7
			l-5.3-2.3c2.8-6.2,5.2-12.7,7.3-19.3L74.5,38.2z M76.4,12.7l-4,4c-2.4-2.9-5.7-5.9-10-9.2l3.9-3.8C70.4,6.7,73.7,9.7,76.4,12.7z
			 M89.1,3.4v18.2c-0.2,16.7-3.7,28.9-10.6,36.7l-4.4-3.8c4.4-4.8,7.3-11.5,8.6-20.2l-2.3,1.2c-1.7-5.5-3.7-10.4-5.7-14.8l4-1.7
			c1.7,3.5,3.2,7.3,4.6,11.4c0.2-2.8,0.4-5.7,0.5-8.7V3.4H89.1z M95.8,33.7l-3.4,1.5c-0.8-5.8-1.8-10.9-2.8-15.4l3.1-1
			C94,23.5,95,28.4,95.8,33.7z M101.4,4.8v51.4h-5V4.8H101.4z M108.9,33.7l-3.4,1.5c-1.1-5.8-2.2-10.9-3.5-15.4l3.1-1
			C106.5,23.5,107.8,28.4,108.9,33.7z M114.7,2.9v55.3h-5.5V2.9H114.7z"/>
	</g>
	<g class="st0">
		<path d="M7.7,109.4c-0.3,5.2-1,9.8-2,13.8l-5.1-1.6c1.2-3.7,2-8,2.2-12.8L7.7,109.4z M23.3,104.6l-4.6,1.1
			c-0.2-1.1-0.5-2.1-0.7-3.1c-5.5,1.7-10.6,2.9-15.5,3.5l-1.4-4.9c1-0.4,1.7-0.9,2.4-1.5c1.8-1.9,4-5,6.7-9.4
			c-2.6,0.4-5.3,0.8-8,1.3l-1.4-5c0.8-0.4,1.6-1.1,2.3-2c2.5-4.9,4.7-10.3,6.6-16.2l5.2,2C12.2,77,9.5,82.4,6.9,86.5
			c2-0.2,4.1-0.6,6.1-1c1.3-2.5,2.8-5.2,4.3-8.2l5.1,1.9c-5.5,9.8-10,17-13.6,21.3c2.7-0.5,5.4-1.2,8-2c-0.5-1.6-1-3.1-1.5-4.5
			l4.3-1.4C21,96,22.2,100.1,23.3,104.6z M16.3,120l-5,1.1c-0.5-4.6-1-8.6-1.7-12.1l4.7-1C15,111.7,15.7,115.7,16.3,120z
			 M23.6,116.6l-4.7,1.2c-0.6-3.4-1.4-6.7-2.2-9.8l4.4-1.4C22.1,109.5,22.9,112.8,23.6,116.6z M33.3,79.1c-1.7,3.7-3.4,6.8-5.2,9.2
			c1.8,2.2,3.7,5.2,5.6,9l-4.6,2.7c-2-4.3-4.2-8.2-6.6-11.6C25,84.8,27,81,28.5,77L33.3,79.1z M25.6,106.5v-5.2h28.5v5.2H42.6v11.3
			h13.6v5.2H23.4v-5.2h13.8v-11.3H25.6z M55.3,70.6v5.2H24.4v-5.2H55.3z M44.2,79.2c-1.6,3.7-3.3,6.7-5,9.1c1.8,2.2,3.7,5.1,5.6,8.8
			l-4.6,2.7c-1.9-4.3-4.1-8.1-6.6-11.4c2.4-3.6,4.4-7.4,5.8-11.3L44.2,79.2z M55.3,79.3c-1.7,3.7-3.4,6.7-5.2,9.1
			c1.8,2.2,3.7,5.1,5.7,8.8l-4.6,2.7c-2-4.3-4.2-8.1-6.6-11.4c2.4-3.6,4.4-7.4,5.9-11.2L55.3,79.3z"/>
		<path d="M74.5,92l-3.9,3.9c-2.2-2.8-5.2-5.6-9.2-8.8l3.8-3.7C68.9,86.3,72,89.2,74.5,92z M76.7,102.3c-2.8,7.6-5.8,14.6-9.1,21.2
			l-5.3-2.3c3.6-6.8,6.8-13.7,9.5-20.8L76.7,102.3z M75.9,77.6L72,81.5c-2.2-2.6-5.3-5.4-9.3-8.4l3.9-3.7
			C70.2,72.1,73.4,74.9,75.9,77.6z M76.7,77.3v-4.6h16.7c-0.5-1.2-1.1-2.3-1.7-3.2l5.4-0.9c0.6,1.2,1.2,2.6,1.8,4.1h16.4v4.6h-14.6
			l2.9,2c-0.5,0.8-1,1.6-1.5,2.3c4.2-0.6,7.7-1.8,10.5-3.7l2.3,3.9c-1,0.6-2,1.1-3.1,1.6c0.9,4.1,2.5,7.8,4.7,11l-3.2,4
			c-0.7-1.1-1.3-2.3-1.7-3.4c-2.8,1-6.1,2-10.1,2.9l-1.6-4.1c1.4-0.7,2.2-1.6,2.2-2.6v-9.5c-1.3,1.8-2.6,3.4-4.1,4.7v12.1h-4.6V86.3
			c-1-1.4-2-2.9-3.2-4.4c-0.1,7.5-0.4,12.1-1,13.9c-0.7,1.7-2,2.6-3.8,2.8h-2.7l-1.1-3.6h2.8c0.8-0.1,1.4-0.7,1.6-1.9
			c0.2-1.2,0.3-4,0.4-8.3h-2.4c-0.5,3.2-1.1,5.9-2,7.9c-1.1,2.3-2.7,4.4-4.7,6.4l-2.8-3.5c1.8-1.4,3.1-3.1,4-4.9
			c0.7-1.5,1.3-3.4,1.7-5.8h-4.1v-4h13.1l-1-1.1l2.4-2.3H76.7z M105.5,98.8h5.2v25.4h-5.2v-10H85.2c-1.3,4.3-3.4,7.6-6.5,10
			l-4.2-3.7c4.4-3,6.6-7.9,6.7-14.5v-6.7h5v2.8h19.2V98.8z M86.1,110h19.4v-3.8H86.3C86.3,107.5,86.2,108.8,86.1,110z M99.8,77.3
			h-8.1c1.6,1.8,3,3.7,4.3,5.5C97.5,81.1,98.9,79.3,99.8,77.3z M106.1,84.8v8c1.6-0.5,2.8-1,3.9-1.5c-0.8-2.3-1.4-4.6-1.9-6.9
			C107.4,84.5,106.7,84.7,106.1,84.8z"/>
	</g>
	<g class="st0">
		<path d="M17.2,142.8c0.3-2.3,0.5-4.7,0.5-7.2v-3.2h3v2.6c0,2.8-0.2,5.4-0.5,7.9h16.6v2.8H21c2.8,9,8.3,16,16.5,20.9l-1.8,2.3
			c-8-5-13.6-11.9-16.6-21c-2.5,9.7-8,16.8-16.5,21.2l-1.8-2.4c8.5-4.2,13.8-11.2,15.9-21.1H1.6v-2.8H17.2z"/>
		<path d="M47.8,142.1c1.6-1.7,3-3.6,4.2-5.6H42v-2.6h13v2.2c-1.7,3-3.6,5.6-5.6,7.8c0.7,0.8,1.3,1.6,1.9,2.3h5.2v1.8
			c-0.6,3.2-1.4,5.6-2.2,7.4l-2.3-0.8c0.7-1.6,1.3-3.4,1.8-5.6h-4.4v16.7c0,2.1-1,3.2-3,3.2h-3.8l-0.6-2.6c1.2,0.1,2.3,0.2,3.4,0.2
			c0.8,0,1.2-0.5,1.2-1.4v-16h-6v-2.7h7.5c-1.6-1.8-3.4-3.8-5.6-5.9l2.1-1.3C45.8,140.1,46.9,141.1,47.8,142.1z M65.6,163.2
			c-2.1,2.2-4.7,4.1-7.8,5.7l-1.6-2c3-1.5,5.5-3.3,7.6-5.3L65.6,163.2z M64.6,139.8c0.4-1.1,0.8-2.2,1-3.3h-8.4v-2.6H77v2.6h-8.5
			c-0.2,1.1-0.6,2.2-1,3.3h8v21.3H58.8v-21.3H64.6z M72.8,146.1v-3.8H61.6v3.8H72.8z M72.8,152.3v-4H61.6v4H72.8z M72.8,154.6H61.6
			v4.2h11.2V154.6z M77.6,166.8l-1.8,1.8c-1.6-1.7-3.9-3.6-6.8-5.5l1.7-1.7C73.4,163.3,75.8,165.1,77.6,166.8z"/>
		<path d="M88.4,148.5l-2,1.9c-1.3-1.8-3.1-3.6-5.4-5.6L83,143C85.2,144.8,87,146.7,88.4,148.5z M88.8,154.8
			c-1.5,4.8-3.1,9.4-4.9,13.6l-2.6-1.1c1.9-4.4,3.6-8.9,5-13.4L88.8,154.8z M89.2,138.5l-2,2c-1.4-1.7-3.3-3.5-5.7-5.4l1.9-1.8
			C85.8,135,87.7,136.8,89.2,138.5z M95.5,160.8c-1.2,2.8-2.8,5.5-4.7,8.1l-2.4-1.3c2-2.7,3.6-5.3,4.7-8L95.5,160.8z M103.2,133.8
			v24.4H90.6v-24.4H103.2z M100.4,140.8v-4.3h-7v4.3H100.4z M100.4,148v-4.7h-7v4.7H100.4z M100.4,150.5h-7v5.1h7V150.5z
			 M104.7,166.7l-2.2,1.6c-1-2.2-2.5-4.7-4.2-7.4l2.1-1.3C102.2,162.3,103.6,164.7,104.7,166.7z M109.4,135.8v24.9h-2.7v-24.9H109.4
			z M108.6,168.4l-0.6-2.7c1.4,0.1,2.7,0.2,4,0.2c1,0,1.5-0.6,1.5-1.7v-31.7h2.7v32.4c0,2.4-1.1,3.6-3.2,3.6H108.6z"/>
	</g>
</g>
</svg>
