<?xml version="1.0" encoding="utf-8"?>
<!-- Generator: Adobe Illustrator 24.3.0, SVG Export Plug-In . SVG Version: 6.00 Build 0)  -->
<svg version="1.1" id="圖層_1" xmlns="http://www.w3.org/2000/svg" xmlns:xlink="http://www.w3.org/1999/xlink" x="0px" y="0px"
	 viewBox="0 0 823 251" style="enable-background:new 0 0 823 251;" xml:space="preserve">
<style type="text/css">
	.st0{fill-rule:evenodd;clip-rule:evenodd;fill:#FFC800;}
</style>
<g>
	<path class="st0" d="M312,5c-53.1,0-103,25.5-103,75.4v95.1c0,49.9,49.9,75.4,103,75.4c53.1,0,103-25.5,103-75.4V80.4
		C415,30.5,365.1,5,312,5z"/>
	<path class="st0" d="M206,78.1C206,32.5,162.8,5,103.4,5C47.7,5,0,38.1,0,85.7h73.8c0-18.7,16.2-30.4,29.7-30.4
		c18.9,0,28.8,9.2,28.8,22.4c0,10.2-4.5,16.3-16.2,25.8L0,198.7V249h206v-50.3H90l76.5-61.2C192.1,117.1,206,103.6,206,78.1z"/>
	<path class="st0" d="M624,76.1C624,30.5,580.8,3,521.4,3C465.7,3,418,36.1,418,83.7h73.8c0-18.7,16.2-30.4,29.7-30.4
		c18.9,0,28.8,9.2,28.8,22.4c0,10.2-4.5,16.3-16.2,25.8l-116,95.2V247h206v-50.3H508l76.5-61.2C610.1,115.1,624,101.6,624,76.1z"/>
	<polygon class="st0" points="771,194.5 771,0 697.3,0 629,44.8 629,104.2 697.3,59.4 697.3,194.5 634.8,194.5 634.8,248 823,248 
		823,194.5 	"/>
</g>
</svg>
