<?xml version="1.0" encoding="utf-8"?>
<!-- Generator: Adobe Illustrator 24.3.0, SVG Export Plug-In . SVG Version: 6.00 Build 0)  -->
<svg version="1.1" id="圖層_1" xmlns="http://www.w3.org/2000/svg" xmlns:xlink="http://www.w3.org/1999/xlink" x="0px" y="0px"
	 viewBox="0 0 315 369" style="enable-background:new 0 0 315 369;" xml:space="preserve">
<style type="text/css">
	.st0{fill-rule:evenodd;clip-rule:evenodd;fill:#FFC800;}
</style>
<g>
	<path class="st0" d="M315,129.7V57.3c0-38-38-57.3-78.5-57.3C196.1,0,158,19.4,158,57.3v72.3c0,30.3,24.3,48.8,54.7,55L168,214.1
		v45.3l51.8-34.1v102.9h-47.4V369H315v-40.8h-39.4V180.3C298.5,171.6,315,154.7,315,129.7z"/>
	<path class="st0" d="M157,55.4C157,20.9,124.1,0,78.8,0C36.3,0,0,25.1,0,61.2h56.2c0-14.2,12.3-23,22.6-23c14.4,0,21.9,7,21.9,17
		c0,7.7-3.4,12.4-12.3,19.6L0,146.9V185h54c-30.9,7.7-54,29.4-54,58.2h56.2c0-14.2,12.3-23,22.6-23c14.4,0,21.9,7,21.9,17
		c0,7.7-3.4,12.4-12.3,19.6L0,328.9V367h157v-38.1H68.6l58.3-46.4c19.5-15.5,30.2-25.8,30.2-45.1c0-26.9-19.9-45.5-50.1-52.4H157
		v-38.1H68.6l58.3-46.4C146.4,85,157,74.7,157,55.4z"/>
</g>
</svg>
